<?xml version="1.0" encoding="UTF-8" standalone="no"?>
<!-- Generator: Adobe Illustrator 16.0.4, SVG Export Plug-In . SVG Version: 6.00 Build 0)  -->

<svg
   xmlns:dc="http://purl.org/dc/elements/1.1/"
   xmlns:cc="http://creativecommons.org/ns#"
   xmlns:rdf="http://www.w3.org/1999/02/22-rdf-syntax-ns#"
   xmlns:svg="http://www.w3.org/2000/svg"
   xmlns="http://www.w3.org/2000/svg"
   xmlns:sodipodi="http://sodipodi.sourceforge.net/DTD/sodipodi-0.dtd"
   xmlns:inkscape="http://www.inkscape.org/namespaces/inkscape"
   version="1.1"
   id="circle_of_friends__x5F__black"
   x="0px"
   y="0px"
   width="1567.2358"
   height="1567.2358"
   viewBox="0 0 1567.2359 1567.2359"
   enable-background="new 0 0 425.197 425.197"
   xml:space="preserve"
   inkscape:version="0.91 r13725"
   sodipodi:docname="icon.svg"><metadata
     id="metadata4276"><rdf:RDF><cc:Work
         rdf:about=""><dc:format>image/svg+xml</dc:format><dc:type
           rdf:resource="http://purl.org/dc/dcmitype/StillImage" /><dc:title></dc:title></cc:Work></rdf:RDF></metadata><defs
     id="defs4274" /><sodipodi:namedview
     pagecolor="#ffffff"
     bordercolor="#666666"
     borderopacity="1"
     objecttolerance="10"
     gridtolerance="10"
     guidetolerance="10"
     inkscape:pageopacity="0"
     inkscape:pageshadow="2"
     inkscape:window-width="3070"
     inkscape:window-height="1752"
     id="namedview4272"
     showgrid="false"
     fit-margin-top="0"
     fit-margin-left="0"
     fit-margin-right="0"
     fit-margin-bottom="0"
     inkscape:zoom="0.16214346"
     inkscape:cx="-764.8776"
     inkscape:cy="-846.66456"
     inkscape:window-x="130"
     inkscape:window-y="48"
     inkscape:window-maximized="1"
     inkscape:current-layer="circle_of_friends__x5F__black" /><style
     id="style4396"
     type="text/css"><![CDATA[
	.st0{fill:#010101;}
]]></style><g
     id="g4532"><rect
       y="0"
       x="0"
       height="1567.2358"
       width="1567.2358"
       id="rect4503"
       style="fill:#e5984d;fill-opacity:1;stroke:none;stroke-width:6;stroke-linecap:round;stroke-linejoin:round;stroke-miterlimit:4;stroke-dasharray:none;stroke-opacity:1" /><g
       transform="matrix(0.89742503,0,0,0.89742503,80.379581,80.379581)"
       id="g4524"><g
         id="g4398"
         transform="matrix(2.6604231,0,0,2.6604231,102.54961,102.54961)"
         style="fill:#ffffff;fill-opacity:1"><path
           id="path4400"
           d="m 332.6,266.6 c -24.3,-10.3 -50,-15.5 -76.6,-15.5 -26.6,0 -52.4,5.2 -76.6,15.5 -19.9,8.4 -38.1,19.9 -54.2,34.3 l 54,60.7 c 21.4,-16.1 48,-25.6 76.8,-25.6 28.8,0 55.4,9.5 76.8,25.6 l 54,-60.7 C 370.7,286.6 352.5,275 332.6,266.6 Z"
           class="st0"
           inkscape:connector-curvature="0"
           style="fill:#ffffff;fill-opacity:1" /><path
           id="path4402"
           d="m 256,352 c -24.1,0 -47.1,7.6 -66.2,21.6 l 66.2,74.5 66.2,-74.5 C 303.1,359.6 280.1,352 256,352 Z"
           class="st0"
           inkscape:connector-curvature="0"
           style="fill:#ffffff;fill-opacity:1" /><path
           id="path4404"
           d="M 372.2,178.6 C 335.4,163 296.3,155.2 256,155.2 c -40.3,0 -79.4,7.9 -116.2,23.4 -29,12.3 -55.6,28.9 -79.3,49.5 l 54.1,60.9 c 37.6,-33.4 87.1,-53.8 141.4,-53.8 54.3,0 103.8,20.3 141.4,53.8 l 54.1,-60.8 c -23.7,-20.7 -50.3,-37.3 -79.3,-49.6 z"
           class="st0"
           inkscape:connector-curvature="0"
           style="fill:#ffffff;fill-opacity:1" /><path
           id="path4406"
           d="M 256,63.9 C 158,63.9 68.4,100.2 0,160 l 49.9,56.1 c 55.2,-47.9 127.3,-77 206.1,-77 78.9,0 150.9,29 206.1,77 L 512,160 C 443.5,100.1 354,63.9 256,63.9 Z"
           class="st0"
           inkscape:connector-curvature="0"
           style="fill:#ffffff;fill-opacity:1" /></g><path
         id="path4486"
         d="m 766.11117,562.49349 c -33.82663,7.17299 -63.3156,30.57516 -77.25252,61.42538 -17.44935,38.41819 -8.38612,84.41846 22.59811,115.12763 l 8.92922,8.79521 -14.47295,101.87485 c -7.99115,55.88165 -14.75507,104.99234 -15.2911,108.77985 l -0.81111,7.173 93.62275,0 93.48873,0 0,-2.8424 c 0,-1.62221 -6.36188,-48.03156 -14.20492,-103.22906 -7.85009,-55.06349 -14.61401,-102.81997 -15.01604,-106.07145 -0.81111,-5.68479 -0.67709,-5.8188 8.11811,-14.74802 16.91332,-16.91331 27.86677,-39.23635 30.70916,-63.1816 1.89729,-15.01604 -0.54308,-32.87447 -6.35483,-47.48847 -11.6376,-29.08696 -38.29124,-53.44129 -68.8664,-62.91359 -10.8265,-3.24442 -35.31483,-4.73263 -45.19621,-2.70133 z"
         inkscape:connector-curvature="0"
         style="fill:#e99849;fill-opacity:1"
         sodipodi:nodetypes="cccccccccsccccccc" /></g></g></svg>